<?xml version="1.0" standalone="no"?>
<!DOCTYPE svg PUBLIC "-//W3C//DTD SVG 20010904//EN"
 "http://www.w3.org/TR/2001/REC-SVG-20010904/DTD/svg10.dtd">
<svg version="1.0" xmlns="http://www.w3.org/2000/svg"
 width="700.000000pt" height="700.000000pt" viewBox="0 0 700.000000 700.000000"
 preserveAspectRatio="xMidYMid meet">
<metadata>
Created by potrace 1.14, written by Peter Selinger 2001-2017
</metadata>
<g transform="translate(0.000000,700.000000) scale(0.100000,-0.100000)"
fill="#000000" stroke="none">
<path d="M1147 6814 c-1 -1 -31 -4 -67 -8 -286 -27 -569 -227 -705 -496 -29
-58 -77 -190 -69 -190 3 0 0 -8 -5 -18 -17 -32 -24 -150 -25 -417 -1 -143 -5
-266 -10 -274 -6 -9 -5 -12 0 -8 13 7 12 -933 0 -952 -6 -9 -5 -12 0 -8 13 7
12 -933 0 -952 -6 -9 -5 -12 0 -8 13 7 12 -933 0 -952 -6 -9 -5 -12 0 -8 13 7
12 -933 0 -952 -6 -9 -5 -12 1 -8 5 4 9 -59 9 -166 1 -251 18 -346 89 -503
121 -264 389 -466 685 -514 90 -14 4809 -14 4900 1 75 12 165 38 230 67 24 12
48 18 54 15 5 -3 6 -2 3 3 -3 5 19 23 49 39 30 16 54 33 54 37 0 4 4 8 10 8
18 0 160 135 160 152 0 5 5 6 12 2 6 -4 8 -3 4 4 -3 6 -2 13 4 17 19 12 119
183 126 215 0 3 6 18 12 33 7 16 12 34 12 41 0 7 3 16 7 20 4 3 8 14 10 24 1
9 7 39 12 67 5 27 7 53 5 57 -3 5 -2 8 3 8 4 0 7 1081 6 2403 -2 2608 1 2467
-56 2617 -21 57 -59 135 -92 189 -22 38 -83 109 -135 159 -133 130 -284 204
-500 248 -28 6 -4786 14 -4793 8z"/>
</g>
</svg>
